HIERARCHY
ROOT joint_Root
{
	OFFSET 0.0 0.0 0.0
	CHANNELS 6 Xposition Yposition Zposition Zrotation Xrotation Yrotation 
	JOINT Hips
	{
		OFFSET 4.5925 91.4895 -427.239
		CHANNELS 6 Xposition Yposition Zposition Zrotation Xrotation Yrotation 
		JOINT Spine
		{
			OFFSET 15.7357 0.0 0.0
			CHANNELS 6 Xposition Yposition Zposition Zrotation Xrotation Yrotation 
			JOINT Chest
			{
				OFFSET 8.98455 -0.406207 0.0
				CHANNELS 6 Xposition Yposition Zposition Zrotation Xrotation Yrotation 
				JOINT Neck
				{
					OFFSET 16.3773 0.0 0.0
					CHANNELS 6 Xposition Yposition Zposition Zrotation Xrotation Yrotation 
					JOINT Head
					{
						OFFSET 6.45672 0.0 0.0
						CHANNELS 6 Xposition Yposition Zposition Zrotation Xrotation Yrotation 
						End Site
						{
							OFFSET 0.0 0.0 0.0
						}
					}
				}
				JOINT Shoulder_L
				{
					OFFSET 12.9942 -0.242716 4.98039
					CHANNELS 6 Xposition Yposition Zposition Zrotation Xrotation Yrotation 
					JOINT UpperArm_L
					{
						OFFSET 5.34809 0.0 0.0
						CHANNELS 6 Xposition Yposition Zposition Zrotation Xrotation Yrotation 
						JOINT LowerArm_L
						{
							OFFSET 24.3286 1.87007e-05 0.0
							CHANNELS 6 Xposition Yposition Zposition Zrotation Xrotation Yrotation 
							JOINT Hand_L
							{
								OFFSET 22.2916 0.0 0.0
								CHANNELS 6 Xposition Yposition Zposition Zrotation Xrotation Yrotation 
								End Site
								{
									OFFSET 0.0 0.0 0.0
								}
							}
						}
					}
				}
				JOINT Shoulder_R
				{
					OFFSET 12.9945 -0.242716 -4.98039
					CHANNELS 6 Xposition Yposition Zposition Zrotation Xrotation Yrotation 
					JOINT UpperArm_R
					{
						OFFSET -5.34813 0.0 0.0
						CHANNELS 6 Xposition Yposition Zposition Zrotation Xrotation Yrotation 
						JOINT LowerArm_R
						{
							OFFSET -24.3289 0.000322201 0.0
							CHANNELS 6 Xposition Yposition Zposition Zrotation Xrotation Yrotation 
							JOINT Hand_R
							{
								OFFSET -22.2915 -0.000108084 0.0
								CHANNELS 6 Xposition Yposition Zposition Zrotation Xrotation Yrotation 
								End Site
								{
									OFFSET 0.0 0.0 0.0
								}
							}
						}
					}
				}
			}
		}
		JOINT UpperLeg_L
		{
			OFFSET -2.19248 -6.46944 0.0
			CHANNELS 6 Xposition Yposition Zposition Zrotation Xrotation Yrotation 
			JOINT LowerLeg_L
			{
				OFFSET 39.0811 0.0 -1.23785e-05
				CHANNELS 6 Xposition Yposition Zposition Zrotation Xrotation Yrotation 
				JOINT Foot_L
				{
					OFFSET 40.9854 0.0 -1.26872e-05
					CHANNELS 6 Xposition Yposition Zposition Zrotation Xrotation Yrotation 
					JOINT Toes_L
					{
						OFFSET 11.7543 0.0 0.0
						CHANNELS 6 Xposition Yposition Zposition Zrotation Xrotation Yrotation 
						End Site
						{
							OFFSET 0.0 0.0 0.0
						}
					}
				}
			}
		}
		JOINT UpperLeg_R
		{
			OFFSET -2.19251 6.46944 0.0
			CHANNELS 6 Xposition Yposition Zposition Zrotation Xrotation Yrotation 
			JOINT LowerLeg_R
			{
				OFFSET -39.0811 -0.00228153 -0.0401928
				CHANNELS 6 Xposition Yposition Zposition Zrotation Xrotation Yrotation 
				JOINT Foot_R
				{
					OFFSET -40.9854 0.0 0.0
					CHANNELS 6 Xposition Yposition Zposition Zrotation Xrotation Yrotation 
					JOINT Toes_R
					{
						OFFSET -11.7543 0.0 0.0
						CHANNELS 6 Xposition Yposition Zposition Zrotation Xrotation Yrotation 
						End Site
						{
							OFFSET 0.0 0.0 0.0
						}
					}
				}
			}
		}
	}
}
MOTION
Frames:	8
Frame Time:	0.0333333
0.000000 0.000000 0.000000 0.000000 0.000000 -0.000000 112.687000 89.644100 167.083000 -89.434500 32.150300 -176.777000 15.735700 0.000005 -0.000001 93.926300 79.924400 -92.190800 8.984550 -0.406207 -0.000000 12.321000 1.436030 3.315460 16.377300 -0.000001 -0.000001 3.502680 2.856490 2.818520 6.456720 -0.000001 -0.000000 -2.251770 6.189820 1.180040 12.994200 -0.242716 4.980390 -90.966600 3.077050 -72.552000 5.348090 -0.000007 -0.000001 -66.441900 38.077500 -17.115600 24.328600 0.000019 0.000005 7.405020 18.245600 -22.544100 22.291600 -0.000001 0.000005 12.517900 5.216830 2.294360 12.994500 -0.242716 -4.980390 88.602400 9.749270 -81.801300 -5.348130 -0.000001 -0.000004 -54.766800 26.961100 -22.603200 -24.328900 0.000322 -0.000009 -0.838290 -2.085970 -21.877700 -22.291500 -0.000108 -0.000004 17.181100 5.369170 -1.960620 -2.192480 -6.469440 -0.000000 -179.285000 -7.489390 -22.263400 39.081100 -0.000007 -0.000012 0.110227 -0.054149 63.835400 40.985400 -0.000006 -0.000013 0.876506 1.057380 -63.041100 11.754300 -0.000000 0.000003 -0.003358 -0.044594 -18.390500 -2.192510 6.469440 -0.000001 175.259000 21.114000 166.940000 -39.081100 -0.002282 -0.040193 -0.273247 0.367168 36.985700 -40.985400 0.000008 0.000006 -0.313934 6.852920 -69.405600 -11.754300 -0.000006 -0.000006 -0.002381 -0.033392 -17.931000
0.000000 0.000000 0.000000 0.000000 0.000000 -0.000000 113.804000 89.977100 165.708000 -89.671800 31.027700 -177.143000 15.735700 0.000005 -0.000001 94.668300 80.019400 -93.024600 8.984550 -0.406207 -0.000000 12.110500 1.672350 3.109350 16.377300 -0.000001 -0.000001 3.324640 2.846330 2.937590 6.456720 -0.000001 -0.000000 -2.521830 6.081740 0.869061 12.994200 -0.242716 4.980390 -90.929600 2.943830 -72.465500 5.348090 -0.000007 -0.000001 -67.618300 36.236300 -14.703600 24.328600 0.000019 0.000005 6.205930 19.679300 -17.896800 22.291600 -0.000001 0.000005 11.893300 5.189170 2.989900 12.994500 -0.242716 -4.980390 88.702200 9.185760 -81.922900 -5.348130 -0.000001 -0.000004 -53.910600 25.711300 -24.684300 -24.328900 0.000322 -0.000009 -0.777770 -1.813130 -23.191900 -22.291500 -0.000108 -0.000004 17.254100 5.373120 -2.083350 -2.192480 -6.469440 -0.000000 179.637000 -9.164760 -23.683700 39.081100 -0.000007 -0.000012 0.082493 -0.051993 57.775500 40.985400 -0.000006 -0.000013 1.084080 1.397030 -63.674000 11.754300 -0.000000 0.000003 -0.002882 -0.039269 -18.173700 -2.192510 6.469440 -0.000001 174.812000 22.413200 168.886000 -39.081100 -0.002282 -0.040193 -0.242386 0.347137 35.288200 -40.985400 0.000008 0.000006 -0.189296 7.015790 -69.994000 -11.754300 -0.000006 -0.000006 -0.002071 -0.029597 -17.776600
0.000000 0.000000 0.000000 0.000000 0.000000 -0.000000 114.804000 90.132900 164.322000 -89.684000 30.125800 -177.711000 15.735700 0.000005 -0.000001 95.856900 80.103500 -94.254300 8.984550 -0.406207 -0.000000 11.902100 2.060110 2.989720 16.377300 -0.000001 -0.000001 3.024390 2.791730 3.021540 6.456720 -0.000001 -0.000000 -2.775270 5.889830 0.716590 12.994200 -0.242716 4.980390 -90.902000 2.839190 -72.367500 5.348090 -0.000007 -0.000001 -68.483100 33.851800 -12.439800 24.328600 0.000019 0.000005 5.361830 21.339600 -14.463800 22.291600 -0.000001 0.000005 11.640300 5.165440 3.571140 12.994500 -0.242716 -4.980390 88.771500 8.741130 -81.967700 -5.348130 -0.000001 -0.000004 -52.866000 24.407800 -26.441300 -24.328900 0.000322 -0.000009 -1.063070 -2.300280 -24.789500 -22.291500 -0.000108 -0.000004 17.455400 5.380570 -2.315910 -2.192480 -6.469440 -0.000000 178.419000 -11.061300 -24.428600 39.081100 -0.000007 -0.000012 0.052782 -0.045092 49.490600 40.985400 -0.000006 -0.000013 0.786302 1.864030 -63.927500 11.754300 -0.000000 0.000003 -0.002435 -0.034036 -17.960800 -2.192510 6.469440 -0.000001 174.513000 23.707600 170.439000 -39.081100 -0.002282 -0.040193 -0.225450 0.338574 34.043500 -40.985400 0.000008 0.000006 -0.121642 7.368830 -70.691100 -11.754300 -0.000006 -0.000006 -0.002100 -0.029967 -17.791600
0.000000 0.000000 0.000000 0.000000 0.000000 -0.000000 115.692000 90.102600 162.865000 -89.461900 29.437900 -178.431000 15.735700 0.000005 -0.000001 97.230300 80.146800 -95.603800 8.984550 -0.406207 -0.000000 11.758000 2.515870 2.993150 16.377300 -0.000001 -0.000001 2.594510 2.691920 3.054530 6.456720 -0.000001 -0.000000 -3.056900 5.663780 0.652854 12.994200 -0.242716 4.980390 -90.882000 2.756700 -72.251500 5.348090 -0.000007 -0.000001 -69.167700 31.017600 -10.344200 24.328600 0.000019 0.000005 4.621230 22.203800 -12.073500 22.291600 -0.000001 0.000005 11.810400 5.148120 3.986640 12.994500 -0.242716 -4.980390 88.829100 8.386140 -82.022400 -5.348130 -0.000001 -0.000004 -51.511800 23.246700 -27.952000 -24.328900 0.000322 -0.000009 -1.315330 -2.618620 -26.663700 -22.291500 -0.000108 -0.000004 17.990900 5.389070 -2.584900 -2.192480 -6.469440 -0.000000 176.971000 -13.617300 -24.843900 39.081100 -0.000007 -0.000012 0.029614 -0.035171 40.095700 40.985400 -0.000006 -0.000013 0.020679 1.506930 -62.877000 11.754300 -0.000000 0.000003 -0.002382 -0.033411 -17.935400 -2.192510 6.469440 -0.000001 174.404000 24.729600 171.619000 -39.081100 -0.002282 -0.040193 -0.197816 0.304929 33.406400 -40.985400 0.000008 0.000006 0.203208 7.631490 -71.699200 -11.754300 -0.000006 -0.000006 -0.002041 -0.029225 -17.761500
0.000000 0.000000 0.000000 0.000000 0.000000 -0.000000 116.542000 89.860600 161.232000 -89.030000 29.060400 -179.169000 15.735700 0.000005 -0.000001 98.826500 80.149000 -97.145200 8.984550 -0.406207 -0.000000 11.671800 3.055200 3.049690 16.377300 -0.000001 -0.000001 2.178500 2.578630 3.124350 6.456720 -0.000001 -0.000000 -3.423540 5.416160 0.627099 12.994200 -0.242716 4.980390 -90.846300 2.622960 -72.109900 5.348090 -0.000007 -0.000001 -69.663200 28.628600 -8.543840 24.328600 0.000019 0.000005 4.024110 22.174200 -10.558000 22.291600 -0.000001 0.000005 12.393600 5.123770 4.563210 12.994500 -0.242716 -4.980390 88.872800 8.151460 -82.099500 -5.348130 -0.000001 -0.000004 -49.935200 22.369900 -29.110800 -24.328900 0.000322 -0.000009 -1.347470 -2.465310 -28.653800 -22.291500 -0.000108 -0.000004 18.707600 5.394510 -2.759510 -2.192480 -6.469440 -0.000000 174.299000 -16.432700 -25.792200 39.081100 -0.000007 -0.000012 0.211217 -0.337555 32.035400 40.985400 -0.000006 -0.000013 7.047010 -0.191557 -62.484300 11.754300 -0.000000 0.000003 -0.002511 -0.034941 -17.997600 -2.192510 6.469440 -0.000001 174.373000 25.239900 172.608000 -39.081100 -0.002282 -0.040193 -0.172954 0.267185 33.411000 -40.985400 0.000008 0.000006 0.331245 7.710260 -73.044900 -11.754300 -0.000006 -0.000006 -0.002090 -0.029837 -17.786300
0.000000 0.000000 0.000000 0.000000 0.000000 -0.000000 117.343000 89.524600 159.334000 -89.198100 28.733000 -179.609000 15.735700 0.000005 -0.000001 99.595100 80.156500 -98.085600 8.984550 -0.406207 -0.000000 11.617400 3.305080 2.682330 16.377300 -0.000001 -0.000001 1.897920 2.504090 3.330630 6.456720 -0.000001 -0.000000 -3.835050 5.302250 0.743885 12.994200 -0.242716 4.980390 -90.825000 2.564580 -72.161300 5.348090 -0.000007 -0.000001 -69.998100 26.591600 -7.092930 24.328600 0.000019 0.000005 3.592480 21.947000 -9.535310 22.291600 -0.000001 0.000005 12.786500 5.113860 4.793830 12.994500 -0.242716 -4.980390 88.901600 8.213680 -82.356400 -5.348130 -0.000001 -0.000004 -48.216500 21.679100 -29.929400 -24.328900 0.000322 -0.000009 -1.241510 -2.112030 -30.437100 -22.291500 -0.000108 -0.000004 19.595100 5.400450 -2.951340 -2.192480 -6.469440 -0.000000 171.963000 -19.114400 -28.058600 39.081100 -0.000007 -0.000012 0.177388 -0.324348 28.674600 40.985400 -0.000006 -0.000013 9.126340 -1.524960 -58.124700 11.754300 -0.000000 0.000003 -0.002451 -0.034229 -17.968700 -2.192510 6.469440 -0.000001 173.795000 25.309200 173.463000 -39.081100 -0.002282 -0.040193 -0.087986 0.135774 33.912400 -40.985400 0.000008 0.000006 0.953686 7.228370 -74.831000 -11.754300 -0.000006 -0.000006 -0.001736 -0.025358 -17.604200
0.000000 0.000000 0.000000 0.000000 0.000000 -0.000000 118.297000 89.053200 156.996000 -89.254800 28.154800 -179.913000 15.735700 0.000005 -0.000001 99.492300 80.229200 -98.163100 8.984550 -0.406207 -0.000000 11.484800 3.239720 2.332000 16.377300 -0.000001 -0.000001 1.764920 2.389800 3.650780 6.456720 -0.000001 -0.000000 -4.070480 5.224720 1.020130 12.994200 -0.242716 4.980390 -90.790700 2.468730 -72.235600 5.348090 -0.000007 -0.000001 -70.196700 26.105900 -6.171870 24.328600 0.000019 0.000005 3.150870 21.624800 -8.495570 22.291600 -0.000001 0.000005 12.974200 5.107680 4.937110 12.994500 -0.242716 -4.980390 88.892000 8.361530 -82.424300 -5.348130 -0.000001 -0.000004 -46.859800 21.473200 -30.181500 -24.328900 0.000322 -0.000009 -1.324340 -2.123900 -31.934600 -22.291500 -0.000108 -0.000004 20.332000 5.410070 -3.267090 -2.192480 -6.469440 -0.000000 171.651000 -18.829300 -29.131100 39.081100 -0.000007 -0.000012 0.090023 -0.155345 30.092400 40.985400 -0.000006 -0.000013 9.260840 -3.697860 -54.901200 11.754300 -0.000000 0.000003 -0.002000 -0.028718 -17.744500 -2.192510 6.469440 -0.000001 173.188000 25.064800 174.767000 -39.081100 -0.002282 -0.040193 0.044926 -0.060321 34.614100 -40.985400 0.000008 0.000006 1.651550 6.092140 -76.724300 -11.754300 -0.000006 -0.000006 -0.001989 -0.028581 -17.735300
0.000000 0.000000 0.000000 0.000000 0.000000 -0.000000 119.411000 88.549500 154.213000 -89.125500 27.472700 179.895000 15.735700 0.000005 -0.000001 99.189300 80.381100 -98.044500 8.984550 -0.406207 -0.000000 11.206500 3.082770 1.986550 16.377300 -0.000001 -0.000001 1.581990 2.119160 3.933330 6.456720 -0.000001 -0.000000 -3.920980 4.995520 1.664100 12.994200 -0.242716 4.980390 -90.794400 2.492560 -72.316900 5.348090 -0.000007 -0.000001 -70.159200 26.609000 -5.773490 24.328600 0.000019 0.000005 2.846690 21.911500 -7.589800 22.291600 -0.000001 0.000005 12.368900 5.108170 4.925290 12.994500 -0.242716 -4.980390 88.810600 8.742220 -82.221300 -5.348130 -0.000001 -0.000004 -46.218800 21.570700 -29.472800 -24.328900 0.000322 -0.000009 -1.436350 -2.191890 -33.228000 -22.291500 -0.000108 -0.000004 20.752400 5.416460 -3.480040 -2.192480 -6.469440 -0.000000 172.830000 -15.809200 -29.619700 39.081100 -0.000007 -0.000012 0.010033 -0.014127 35.379700 40.985400 -0.000006 -0.000013 7.839950 -5.977130 -57.940700 11.754300 -0.000000 0.000003 -0.000844 -0.013169 -17.112400 -2.192510 6.469440 -0.000001 172.401000 24.359600 176.057000 -39.081100 -0.002282 -0.040193 0.038741 -0.048706 36.050600 -40.985400 0.000008 0.000006 0.576068 5.116350 -76.664000 -11.754300 -0.000006 -0.000006 -0.428434 -0.535746 -19.088600
